<?xml version="1.0" standalone="no"?>
<!DOCTYPE svg PUBLIC "-//W3C//DTD SVG 20010904//EN"
 "http://www.w3.org/TR/2001/REC-SVG-20010904/DTD/svg10.dtd">
<svg version="1.0" xmlns="http://www.w3.org/2000/svg"
 width="1920.000000pt" height="1080.000000pt" viewBox="0 0 1920.000000 1080.000000"
 preserveAspectRatio="xMidYMid meet">

<g transform="translate(0.000000,1080.000000) scale(0.100000,-0.100000)"
fill="#000000" stroke="none">
<path d="M7830 10446 c-195 -112 -462 -265 -592 -340 -131 -75 -240 -136 -243
-136 -3 0 -30 -16 -60 -35 -30 -19 -81 -48 -112 -65 -32 -17 -87 -48 -123 -69
-36 -21 -81 -47 -100 -58 -19 -11 -91 -52 -159 -91 -68 -40 -125 -72 -127 -72
-2 0 -27 -14 -56 -31 -29 -18 -66 -40 -83 -49 -16 -10 -73 -42 -125 -72 -52
-30 -115 -66 -140 -80 -25 -14 -85 -48 -133 -77 -49 -28 -90 -51 -92 -51 -2 0
-33 -18 -69 -40 -36 -22 -68 -40 -71 -40 -2 0 -28 -15 -57 -32 -30 -18 -67
-40 -83 -50 -17 -9 -84 -47 -150 -85 -66 -37 -126 -72 -135 -76 -8 -4 -33 -19
-55 -32 -22 -14 -53 -32 -70 -41 -16 -8 -47 -25 -67 -37 -20 -12 -65 -37 -100
-56 -35 -18 -70 -39 -78 -46 -8 -7 -40 -26 -70 -42 -30 -17 -72 -40 -92 -52
-91 -52 -115 -65 -153 -86 -22 -12 -67 -38 -100 -57 -70 -41 -201 -117 -230
-133 -91 -50 -135 -78 -135 -85 0 -5 287 -172 638 -372 350 -201 1611 -922
2802 -1603 1191 -681 2173 -1240 2182 -1243 10 -2 180 90 403 218 362 207 902
516 2695 1542 680 388 731 416 818 438 50 13 92 26 92 30 0 3 -183 111 -407
239 l-408 234 -104 -27 c-102 -26 -114 -33 -1379 -756 -1269 -726 -1276 -730
-1413 -775 l-138 -45 -148 0 -149 0 -145 49 c-111 37 -177 66 -279 126 -74 43
-328 188 -563 323 -341 196 -425 248 -415 257 7 7 546 317 1198 690 652 372
1406 804 1677 959 369 211 489 284 480 292 -7 6 -192 113 -411 238 -353 202
-402 227 -422 217 -13 -6 -776 -441 -1696 -967 -1500 -859 -1675 -956 -1698
-947 -14 5 -270 150 -570 322 -525 302 -548 316 -627 394 l-83 82 0 90 0 90
78 75 c88 85 -56 1 1970 1159 590 338 1071 615 1070 616 -4 4 -830 475 -832
475 0 0 -161 -92 -356 -204z"/>
<path d="M12665 5732 c-86 -23 -129 -44 -307 -147 l-208 -119 0 -1476 0 -1476
415 -237 c228 -130 417 -237 420 -237 3 0 5 771 5 1713 l-1 1712 -28 104 -28
104 -74 43 c-41 24 -78 43 -84 43 -5 0 -55 -13 -110 -27z"/>
<path d="M9110 4704 c-266 -157 -486 -286 -487 -288 -2 -2 14 -34 36 -72 28
-49 47 -103 68 -189 l28 -120 5 -1734 5 -1734 415 -237 415 -237 3 1223 c1
673 1 1775 0 2449 l-3 1224 -485 -285z"/>
<path d="M10948 4754 c-67 -19 -129 -49 -280 -135 -106 -61 -199 -115 -205
-121 -10 -8 -13 -313 -13 -1487 l0 -1477 413 -235 412 -236 3 1716 2 1716 -26
101 -26 101 -73 42 c-40 22 -83 40 -96 40 -13 -1 -63 -12 -111 -25z"/>
</g>
</svg>
